<svg width="930" height="609.87353" xmlns="http://www.w3.org/2000/svg" data-name="Layer 1">

 <g>
  <title>Layer 1</title>
  <path fill="#e6e6e6" d="m41.062,561.78568a24.21462,24.21462 0 0 0 23.38269,-4.11877c8.18977,-6.87442 10.758,-18.196 12.8467,-28.68191l6.17973,-31.01657l-12.93771,8.90834c-9.30465,6.40642 -18.81826,13.01867 -25.26011,22.29786s-9.25223,21.94707 -4.07792,31.988" data-name="Path 438" id="f5877e54-26d9-4110-bb17-7d90037dcb2b"/>
  <path fill="#f2f2f2" d="m43.0597,601.49624c-1.62839,-11.86369 -3.30382,-23.88078 -2.15884,-35.87167c1.01467,-10.64932 4.26373,-21.04881 10.87831,-29.57938a49.20592,49.20592 0 0 1 12.62466,-11.44042c1.26215,-0.79648 2.42409,1.20354 1.16733,1.997a46.77945,46.77945 0 0 0 -18.50446,22.32562c-4.02858,10.24607 -4.67545,21.41582 -3.98154,32.3003c0.41944,6.58218 1.31074,13.1212 2.20588,19.65251a1.19817,1.19817 0 0 1 -0.808,1.42251a1.16348,1.16348 0 0 1 -1.42253,-0.808l-0.00081,0.00153z" data-name="Path 439" id="af7e5462-cb8c-4c3a-a84b-026a28a01614"/>
  <path fill="#e6e6e6" d="m54.78073,582.45977a17.82513,17.82513 0 0 0 15.53141,8.01862c7.8644,-0.37318 14.41806,-5.85973 20.31713,-11.07027l17.452,-15.4088l-11.54987,-0.55281c-8.3062,-0.39784 -16.82672,-0.771 -24.73814,1.79338s-15.20757,8.72639 -16.654,16.91541" data-name="Path 442" id="b74da307-8ad0-4d1b-99e4-dedad26aca71"/>
  <path fill="#f2f2f2" d="m38.45672,608.31593c7.83972,-13.87142 16.93234,-29.28794 33.1808,-34.21552a37.02609,37.02609 0 0 1 13.95545,-1.44105c1.48189,0.128 1.11179,2.41174 -0.367,2.28454a34.39833,34.39833 0 0 0 -22.27164,5.89215c-6.27994,4.27453 -11.16975,10.21755 -15.30781,16.51907c-2.53511,3.86051 -4.80577,7.88445 -7.07642,11.903c-0.72556,1.28451 -2.84739,0.35697 -2.11338,-0.94219z" data-name="Path 443" id="eea67ff0-2845-4236-af55-5d249be779f1"/>
  <circle id="svg_24" fill="#ffb7b7" transform="rotate(-63.5798, -0.410376, 783.534)" r="19.17963" cy="1186.72133" cx="901.6103"/>
  <path id="svg_34" fill="#3f3d56" d="m929,609.46813l-928,0a1,1 0 0 1 0,-2l928,0a1,1 0 0 1 0,2z"/>
  <path id="svg_46" fill="#40e53d" d="m663.21867,169.86848c-14.71126,-19.68715 -41.63633,-24.43848 -55.016,-14.4405s-16.45312,37.16578 -1.74186,56.85292c13.61709,18.2229 38.28788,23.19273 51.87646,16.36552a1.70623,1.70623 0 0 0 -0.008,0.64694l0.7661,3.78749a1.72815,1.72815 0 0 0 2.75777,1.0192l6.48744,-5.06824a1.7282,1.7282 0 0 0 -0.32149,-2.92255l-3.48973,-1.65968a1.71,1.71 0 0 0 -0.384,-0.12059c10.47419,-11.07332 12.72001,-36.19801 -0.92669,-54.46051z"/>
  <path id="svg_47" fill="#fff" d="m631.03958,162.43556a28.43178,28.43178 0 0 1 23.81222,31.08457c-0.15813,1.65975 2.43513,1.6489 2.59222,0a31.08812,31.08812 0 0 0 -25.71533,-33.58419c-1.63169,-0.27736 -2.3329,2.22018 -0.68911,2.49962z"/>
  <path id="svg_48" fill="#38eda2" d="m172.19769,194.56084c12.86166,-20.94237 7.33248,-47.71854 -6.90025,-56.45949s-40.61474,-1.56289 -53.47639,19.37948c-11.90506,19.38475 -7.41154,44.14672 3.95178,54.25292a1.7066,1.7066 0 0 0 -0.60414,0.23155l-3.23673,2.11082a1.72815,1.72815 0 0 0 0.07142,2.9392l7.106,4.15682a1.72819,1.72819 0 0 0 2.59716,-1.37818l0.25344,-3.856a1.7105,1.7105 0 0 0 -0.02977,-0.40137c14.15887,5.64372 38.33656,-1.54882 50.26748,-20.97575z"/>
  <path id="svg_49" fill="#fff" d="m167.22,161.91177a28.43178,28.43178 0 0 1 -20.09183,33.60938c-1.60081,0.46606 -0.63292,2.872 0.95741,2.40893a31.08811,31.08811 0 0 0 21.71181,-36.30114c-0.34493,-1.61882 -2.92486,-1.34798 -2.57739,0.28283z"/>
  <path id="svg_50" fill="#6c63ff" d="m815.26462,42.92706c-1.07548,-24.553 -20.65376,-43.63766 -37.3403,-42.90674s-34.52115,21.45438 -33.44566,46.00735c0.99548,22.72681 18.58763,40.723 33.66182,42.7303a1.70645,1.70645 0 0 0 -0.37079,0.53021l-1.499,3.56158a1.72816,1.72816 0 0 0 1.70547,2.39487l8.215,-0.53664a1.7282,1.7282 0 0 0 1.37957,-2.59642l-1.94986,-3.33628a1.71019,1.71019 0 0 0 -0.24947,-0.31584c14.8905,-3.25536 30.89089,-22.75617 29.89322,-45.53239z"/>
  <path id="svg_51" fill="#fff" d="m792.85361,18.66827a28.43179,28.43179 0 0 1 2.181,39.09624c-1.06508,1.28273 1.08432,2.73367 2.14242,1.45932a31.08812,31.08812 0 0 0 -2.34665,-42.23351c-1.19247,-1.14783 -3.17802,0.52161 -1.97677,1.67795z"/>
  <g id="svg_53">
   <polygon id="svg_20" fill="#ffb7b7" points="781.635986328125,493.4219970703125 770.6630249023438,493.4210205078125 765.4420166015625,451.094970703125 781.6380004882812,451.09600830078125 781.635986328125,493.4219970703125 "/>
   <path id="svg_21" fill="#2f2e41" d="m784.43436,504.05877l-35.38273,-0.00131l0,-0.44753a13.77268,13.77268 0 0 1 13.77195,-13.77173l0.00087,0l21.61057,0.00087l-0.00066,14.2197z"/>
   <polygon id="svg_22" fill="#ffb7b7" points="808.43701171875,493.4219970703125 819.4110107421875,493.4210205078125 824.6309814453125,451.094970703125 808.4349975585938,451.09600830078125 808.43701171875,493.4219970703125 "/>
   <path id="svg_23" fill="#2f2e41" d="m805.63827,489.83911l21.61057,-0.00087l0.00087,0a13.77268,13.77268 0 0 1 13.77194,13.77173l0,0.44753l-35.38272,0.00131l-0.00066,-14.2197z"/>
   <path id="svg_25" fill="#2f2e41" d="m747.89752,286.06713s-6.05673,25.23635 -3.02834,37.34981s12.11347,94.88871 12.11347,94.88871l6.05674,65.61456l24.22688,2.01893l-3.02834,-76.71851l3.02834,-66.624l17.16073,64.60507l0,76.9473l25.69387,1.00946l0.55194,-100.16477s2.01893,-78.73743 -11.104,-88.832s-15.1418,-12.11344 -15.1418,-12.11344l-56.52949,2.01888z"/>
   <path id="svg_26" fill="#cbcbcb" d="m784.47066,175.02715l22.98469,12.11344l3.02834,104.98325s-13.12294,-8.07564 -33.312,2.0189s-33.312,3.02837 -33.312,3.02837l12.11347,-45.42546l-5.04727,-60.56726l7.21911,-6.55231l26.32566,-9.59893z"/>
   <path id="svg_27" fill="#2f2e41" d="m758.14743,182.71532l-4.19317,3.41583s-26.24581,13.12291 -27.25528,22.208l18.1702,49.46326s5.04727,11.104 1.00947,15.1418s-8.07566,14.13237 -7.0662,19.17964s-6.05673,26.24581 2.01893,26.24581s27.25528,-48.45381 26.24581,-67.63345s-1.70819,-69.4178 -8.92976,-68.02089z"/>
   <path id="svg_28" fill="#2f2e41" d="m775.79268,176.16462l9.24592,-1.53851s34.32147,9.08508 39.36874,24.22691l-14.1324,35.33089s10.09459,64.60506 7.0662,64.60506l-3.02834,0s8.07561,6.05673 3.02834,8.07564s-17.16074,18.17017 -20.18908,11.104s-21.19854,-90.8509 -19.17961,-109.0211s-3.97259,-30.87931 -2.17977,-32.78289z"/>
   <path id="svg_29" fill="#2f2e41" d="m779.80526,135.34389l0.89831,-1.808l-4.5201,-2.24579s-4.9864,-8.11341 -14.00947,-5.83336s-13.08269,3.6446 -13.08269,3.6446l-4.50867,2.26861l2.26288,2.25149l-4.05952,1.36461l2.712,1.34746l-3.15554,1.81374l1.6987,9.29786s2.82141,-7.05207 8.2455,-4.35714s15.34557,-1.39311 15.34557,-1.39311l8.61958,16.68162s1.77822,-5.84774 4.94868,-4.28847c0.00009,0 8.0998,-12.89937 -1.39523,-18.74412z"/>
   <path id="svg_30" fill="#ffb7b7" d="m807.88244,312.47703a9.00059,9.00059 0 0 1 6.43327,-12.21026l3.88561,-31.74824l12.66131,10.76824l-5.63095,28.49778a9.04939,9.04939 0 0 1 -17.34924,4.69252l0,-0.00004z"/>
   <path id="svg_31" fill="#ffb7b7" d="m753.72894,310.29232a9.00059,9.00059 0 0 0 -7.69169,-11.45929l-7.23005,-31.15726l-11.4482,12.05l8.621,27.74006a9.04938,9.04938 0 0 0 17.749,2.82649l-0.00006,0z"/>
   <path id="svg_32" fill="#2f2e41" d="m808.37046,190.62649s13.12288,-5.0473 17.16074,10.09459s9.08507,45.42545 9.08507,45.42545c0.25091,16.83971 -0.64416,16.83971 0,33.312l-3.02834,15.1418l-17.16073,-2.01893l0.74848,-38.54583l-8.82415,-39.18219l2.01893,-24.22689z"/>
   <path id="svg_33" fill="#2f2e41" d="m735.78406,202.2824l-6.222,0.66554s-5.89147,4.38173 -5.89147,14.47627s-1.00947,40.37818 -1.00947,40.37818s-0.57254,0.70851 4.03781,26.24581c2.24714,12.44722 6.13047,18.321 6.13047,18.321l12.531,-11.63588l-1.50068,-29.90255l4.0378,-16.15127l-12.11346,-42.3971z"/>
  </g>
 </g>
</svg>